<svg id="Layer_3" data-name="Layer 3" xmlns="http://www.w3.org/2000/svg" viewBox="0 0 512 512"><defs><style>.cls-1{fill:#a7a8a9;}</style></defs><title>3</title><path class="cls-1" d="M14.51,257.42l40,15.78a15,15,0,0,0,15.17-2.47l31.68,20,5.44,3.82a26.78,26.78,0,0,0,25.59,40.89,26.77,26.77,0,0,0,29.65,25.15,26.77,26.77,0,0,0,29.67,25.14,26.78,26.78,0,0,0,47.16,15.86l6.35-7.46L256,402c18.52,13.68,44.7,2.47,47.11-20.25,19.1,6.94,39.38-6.45,39.67-27a29.33,29.33,0,0,0,35-27c23.35,6.23,44.47-17.36,34.16-40.43l28.63-18.39a15,15,0,0,0,17,4.29l40-15.78A15,15,0,0,0,506,237.94l-18.28-46.35A7.36,7.36,0,0,0,474,197l18.29,46.35a.31.31,0,0,1-.17.4l-40,15.78a.31.31,0,0,1-.4-.17L401.41,131.9a.26.26,0,0,1,0-.23.32.32,0,0,1,.16-.17l40-15.78a.27.27,0,0,1,.24,0,.3.3,0,0,1,.16.17L461.38,165a7.35,7.35,0,0,0,13.68-5.4l-19.39-49.14A15,15,0,0,0,436.2,102l-40,15.78a15,15,0,0,0-9,17.76l-21.44,7.92a41.77,41.77,0,0,1-21,2.06l-21.68-3.43a7.35,7.35,0,1,0-2.3,14.52l21.68,3.44a56.52,56.52,0,0,0,28.35-2.79l21.64-8L434.32,255.4l-31.55,20.26-.54-.39h0L341.4,230.37a7.4,7.4,0,0,0-5.79-1.3c-30.46,5.18-57.75-5.65-77.83-26.62a16.62,16.62,0,0,0-23.21-.79c-19.48,17.49-46.7,34.55-65.74,16.45a4.37,4.37,0,0,1,1-7c24.26-15.61,49.4-37.52,69.62-58a22.39,22.39,0,0,1,19.38-6.34l27.91,4.43a7.36,7.36,0,1,0,2.3-14.53l-27.91-4.42A37.11,37.11,0,0,0,229,142.82c-2.34,2.37-5.1,5.11-8.22,8.13a104.91,104.91,0,0,0-29.22-5.9c-29.22-1.64-31.75-2-38.39-1.52A34.26,34.26,0,0,1,137.79,141l-13-5.42a15,15,0,0,0-9-17.72L75.81,102a15,15,0,0,0-19.48,8.45L6.05,237.94a15,15,0,0,0,8.46,19.48Zm124.2,59.19A12.09,12.09,0,0,1,120.26,301l18.19-21.34a12.08,12.08,0,1,1,18.43,15.63h0Zm29.65,25.15a12.09,12.09,0,0,1-18.45-15.62l18.19-21.35a12.12,12.12,0,0,1,17.93-.56,1.09,1.09,0,0,1,.1.11,12.09,12.09,0,0,1,.41,16.08ZM198,366.9a12.08,12.08,0,0,1-18.44-15.62l18.19-21.35a12.08,12.08,0,1,1,18.43,15.63h0ZM246,370.58l-.09.11L227.67,392a12.08,12.08,0,0,1-18.45-15.61l18.19-21.35A12.08,12.08,0,0,1,246,370.58ZM119.55,149.27l12.57,5.26a48.91,48.91,0,0,0,21.94,3.68c5.62-.36,7.5-.11,36.62,1.53a90.69,90.69,0,0,1,17.67,2.76c-14.39,13-30.55,26-46.73,36.41a19.08,19.08,0,0,0-2.93,29.87c12.29,11.67,39.76,25.09,85.71-16.18a2,2,0,0,1,2.75,0C269.41,235.86,301,248.84,335,244.05c3.86,2.71-3.62-2.77,58.46,43.05h0c6.64,4.9,8.5,14.54,3.3,21.2a14.64,14.64,0,0,1-20.32,2.78c-8.71-6.43-2.28-1.54-32.91-25.14a7.35,7.35,0,1,0-9,11.65L360,317.17a14.8,14.8,0,0,1-1.33,19.28,15.09,15.09,0,0,1-19.51,1.12c-5.83-4.3-1-.62-27.72-21.2a7.36,7.36,0,0,0-9,11.66L325,345.38a14.75,14.75,0,0,1-.6,18.69c-5,5.67-13.86,6.46-20.17,1.8-10.14-7.49-5.05-3.62-24.59-18.74a7.35,7.35,0,0,0-9,11.63l15.63,12.09a14.71,14.71,0,0,1-1.82,18,15,15,0,0,1-19.77,1.37l-9.89-7.29,2.27-2.67a26.79,26.79,0,0,0-23.35-44,26.76,26.76,0,0,0-28.94-25.21l-.71.06c0-.23,0-.47,0-.7a26.55,26.55,0,0,0-6.33-15.2l-.06-.08A26.8,26.8,0,0,0,174.42,286a26.8,26.8,0,0,0-47.18-15.86l-11.08,13-6.48-4.55a3.37,3.37,0,0,0-.31-.21L76.74,257.79l42.81-108.52ZM19.73,243.34,70,115.89a.31.31,0,0,1,.29-.19.22.22,0,0,1,.11,0l40,15.78a.31.31,0,0,1,.17.4C108.17,138,61.9,255.34,60.31,259.35a.3.3,0,0,1-.4.17l-40-15.78a.31.31,0,0,1-.18-.4Z"/></svg>