<svg id="Layer_1" data-name="Layer 1" xmlns="http://www.w3.org/2000/svg" viewBox="0 0 512 512"><defs><style>.cls-1{fill:#a7a8a9;}</style></defs><title>1</title><polygon class="cls-1" points="482.23 299.65 343.27 454.37 264.85 379.72 237.27 408.7 345.52 511.74 512 326.38 482.23 299.65"/><path class="cls-1" d="M339.81,270a148,148,0,0,0,64.28-122c0-81.62-66.4-148-148-148S108,66.35,108,148A148,148,0,0,0,172.3,270,256.46,256.46,0,0,0,0,512.06H40c0-119.13,96.92-216,216.05-216a215,215,0,0,1,133.82,46.58l26.87-29.91A254.2,254.2,0,0,0,339.81,270Zm-83.75-14a108,108,0,1,1,108-108A108.16,108.16,0,0,1,256.06,256Z"/></svg>